<?xml version="1.0" encoding="UTF-8" standalone="no"?>
<svg
   version="1.0"
   width="128.000000pt"
   height="128.000000pt"
   viewBox="0 0 128.000000 128.000000"
   preserveAspectRatio="xMidYMid meet"
   id="svg8"
   sodipodi:docname="cw_logo.svg"
   inkscape:version="1.1 (c68e22c387, 2021-05-23)"
   xmlns:inkscape="http://www.inkscape.org/namespaces/inkscape"
   xmlns:sodipodi="http://sodipodi.sourceforge.net/DTD/sodipodi-0.dtd"
   xmlns="http://www.w3.org/2000/svg"
   xmlns:svg="http://www.w3.org/2000/svg">
  <defs
     id="defs12" />
  <sodipodi:namedview
     id="namedview10"
     pagecolor="#ffffff"
     bordercolor="#666666"
     borderopacity="1.0"
     inkscape:pageshadow="2"
     inkscape:pageopacity="0.0"
     inkscape:pagecheckerboard="0"
     inkscape:document-units="pt"
     showgrid="false"
     inkscape:zoom="7.2340338"
     inkscape:cx="79.761861"
     inkscape:cy="96.626588"
     inkscape:window-width="3715"
     inkscape:window-height="2126"
     inkscape:window-x="3829"
     inkscape:window-y="-11"
     inkscape:window-maximized="1"
     inkscape:current-layer="layer2" />
  <metadata
     id="metadata2">
Created by potrace 1.16, written by Peter Selinger 2001-2019
</metadata>
  <g
     inkscape:groupmode="layer"
     id="layer1"
     inkscape:label="Layer 1"
     style="display:inline">
    <path
       d="m 55.439791,5.6218657 h 2.525872 l 2.623026,2.337825 1.360079,-1.212207 -2.623035,-2.337825 v -2.25124 c 0,-0.519518 -0.388583,-0.865863 -0.971467,-0.865863 -0.582903,0 -0.971494,0.346345 -0.971494,0.865863 v 1.731722 h -1.942981 c -0.582903,0 -0.971487,0.346344 -0.971487,0.865863 0,0.519517 0.388584,0.865862 0.971487,0.865862 z"
       id="path8"
       style="fill:#44aa00;stroke-width:0.917159" />
    <path
       d="m 79.629889,23.631783 c 2.428749,-3.376861 1.360092,-7.965924 -2.428701,-10.130578 L 67.291964,7.8731037 c -0.971487,-0.606102 -2.331565,-0.779276 -3.497358,-0.432931 -2.137287,0.606104 -3.303079,2.6841713 -2.623033,4.6756533 l 3.691663,9.957407 c 0.582903,1.55855 1.748682,2.857343 3.303078,3.809791 1.942981,1.125619 4.080248,1.38538 6.120385,1.039032 -0.09709,4.329309 -1.651533,9.69765 -7.286176,11.689131 -8.16053,2.857342 -8.549114,-5.368341 -14.572363,-16.451368 -6.023229,-11.083026 -28.367515,-7.706169 -33.030668,1.731725 -5.051752,10.217164 1.457234,16.278195 3.885962,19.048951 2.428729,2.770757 12.337934,8.225684 14.572356,11.2562 2.23443,3.030514 -2.040124,8.485438 -8.743412,-0.865863 C 22.409111,43.979527 16.968765,40.429497 11.722717,41.988047 6.4766711,43.546597 5.408031,48.914939 7.8367541,54.975969 10.265482,61.037001 19.397492,65.106546 16.580171,67.09803 c -1.554386,1.125609 -9.4234592,0.865866 -13.6008669,0 -1.0686407,-0.259753 -1.6515352,1.125609 -0.6800425,1.558547 5.3431958,2.770756 17.0982304,5.368344 20.1098494,0.08657 3.885961,-6.66712 -4.371706,-7.965915 -7.771923,-15.585497 -3.400217,-7.61958 3.303071,-2.337826 5.828944,0.865861 2.525874,3.203687 7.189032,10.909862 13.600865,12.987928 6.411847,2.07806 14.183759,-4.329312 14.669499,-11.689133 0.485747,-7.359824 -7.189022,-10.043995 -11.75503,-13.334268 -4.566002,-3.290275 -10.783543,-10.909855 -2.914469,-14.719644 7.869068,-3.809791 12.532219,7.965924 14.572356,12.122058 2.040125,4.156135 6.800438,7.186653 12.629362,7.792756 5.828951,0.606101 12.337925,-1.904897 16.515349,-8.658617 2.817326,-4.502479 2.137266,-10.043991 0.971507,-13.940369 0.291328,-0.259756 0.58289,-0.606101 0.874318,-0.952449 z"
       id="path10"
       style="fill:#44aa00;stroke-width:0.917159" />
  </g>
  <g
     inkscape:groupmode="layer"
     id="layer2"
     inkscape:label="Layer 2">
    <g
       transform="matrix(0.1,0,0,-0.1,3.5250044,154.64489)"
       fill="#000000"
       stroke="none"
       id="g6"
       style="fill:#e6e6e6">
      <path
         d="M 351,860 C 218,832 125,717 126,580 c 1,-147 95,-219 267,-205 45,3 103,6 128,6 l 46,1 66,141 67,142 v -75 c 0,-41 3,-106 7,-143 l 6,-68 89,3 89,3 125,230 c 68,127 124,234 124,238 0,4 -38,6 -85,5 l -86,-3 -60,-130 c -34,-71 -65,-134 -70,-140 -5,-5 -9,49 -9,133 v 142 h -85 -85 l -17,-37 c -10,-21 -18,-39 -19,-41 -1,-2 -15,9 -30,23 -55,51 -153,73 -243,55 z m 185,-35 c 52,-26 94,-77 94,-113 0,-20 -5,-22 -68,-22 -63,0 -70,2 -80,24 -6,14 -26,29 -46,36 -31,10 -42,9 -74,-7 -88,-43 -113,-212 -36,-253 38,-21 95,-6 129,35 28,33 33,35 93,35 44,0 62,-4 62,-13 0,-23 -51,-91 -88,-118 -138,-99 -356,-37 -378,106 -15,101 19,193 93,255 77,63 211,79 299,35 z"
         id="path4"
         style="fill:#e6e6e6" />
    </g>
  </g>
</svg>
