<?xml version="1.0" encoding="UTF-8" standalone="no"?>
<svg
   version="1.0"
   width="128.000000pt"
   height="128.000000pt"
   viewBox="0 0 128.000000 128.000000"
   preserveAspectRatio="xMidYMid meet"
   id="svg8"
   sodipodi:docname="cw_logo.svg"
   inkscape:version="1.1 (c68e22c387, 2021-05-23)"
   xmlns:inkscape="http://www.inkscape.org/namespaces/inkscape"
   xmlns:sodipodi="http://sodipodi.sourceforge.net/DTD/sodipodi-0.dtd"
   xmlns="http://www.w3.org/2000/svg"
   xmlns:svg="http://www.w3.org/2000/svg">
  <defs
     id="defs12" />
  <sodipodi:namedview
     id="namedview10"
     pagecolor="#ffffff"
     bordercolor="#666666"
     borderopacity="1.0"
     inkscape:pageshadow="2"
     inkscape:pageopacity="0.0"
     inkscape:pagecheckerboard="0"
     inkscape:document-units="pt"
     showgrid="false"
     inkscape:zoom="7.2340338"
     inkscape:cx="79.761861"
     inkscape:cy="96.626587"
     inkscape:window-width="3715"
     inkscape:window-height="2126"
     inkscape:window-x="3829"
     inkscape:window-y="-11"
     inkscape:window-maximized="1"
     inkscape:current-layer="svg8" />
  <metadata
     id="metadata2">
Created by potrace 1.16, written by Peter Selinger 2001-2019
</metadata>
  <g
     transform="matrix(0.1,0,0,-0.1,-2.5919149,125.92647)"
     fill="#000000"
     stroke="none"
     id="g6"
     style="fill:#e6e6e6">
    <path
       d="M 351,860 C 218,832 125,717 126,580 c 1,-147 95,-219 267,-205 45,3 103,6 128,6 l 46,1 66,141 67,142 v -75 c 0,-41 3,-106 7,-143 l 6,-68 89,3 89,3 125,230 c 68,127 124,234 124,238 0,4 -38,6 -85,5 l -86,-3 -60,-130 c -34,-71 -65,-134 -70,-140 -5,-5 -9,49 -9,133 v 142 h -85 -85 l -17,-37 c -10,-21 -18,-39 -19,-41 -1,-2 -15,9 -30,23 -55,51 -153,73 -243,55 z m 185,-35 c 52,-26 94,-77 94,-113 0,-20 -5,-22 -68,-22 -63,0 -70,2 -80,24 -6,14 -26,29 -46,36 -31,10 -42,9 -74,-7 -88,-43 -113,-212 -36,-253 38,-21 95,-6 129,35 28,33 33,35 93,35 44,0 62,-4 62,-13 0,-23 -51,-91 -88,-118 -138,-99 -356,-37 -378,106 -15,101 19,193 93,255 77,63 211,79 299,35 z"
       id="path4"
       style="fill:#e6e6e6" />
  </g>
</svg>
