<?xml version="1.0" encoding="UTF-8" standalone="no"?>
<svg
   width="100%"
   height="100%"
   viewBox="0 0 1000 1000"
   version="1.1"
   xml:space="preserve"
   style="fill-rule:evenodd;clip-rule:evenodd;stroke-linejoin:round;stroke-miterlimit:2;"
   id="svg28"
   xmlns="http://www.w3.org/2000/svg"
   xmlns:svg="http://www.w3.org/2000/svg"><defs
   id="defs32" />
    
    
<g
   id="layer1"
   style="display:inline"><rect
     style="clip-rule:evenodd;fill:#10069f;fill-opacity:1;fill-rule:evenodd;stroke-linejoin:round;stroke-miterlimit:2"
     id="rect1152"
     width="1018.4932"
     height="1005.5188"
     x="-6.4872184"
     y="3.2436092" /></g><g
   id="layer2"
   style="display:inline"><g
     transform="translate(-644.92322,382.3881)"
     id="g22"
     style="clip-rule:evenodd;fill:#ffffff;fill-rule:evenodd;stroke-linejoin:round;stroke-miterlimit:2">
        <text
   x="677.401"
   y="1209.83"
   style="font-weight:900;font-size:200px;font-family:Arial-Black, Arial, sans-serif;fill:#ffffff"
   id="text20">cw<tspan
   x="997.323 1132.67 1266.0699"
   y="1209.83 1209.83 1209.83"
   id="tspan18"
   style="fill:#ffffff">api</tspan>3d</text>
    </g><g
     transform="matrix(8.1231283,0,0,7.4296156,5.7804434,171.26942)"
     id="g26"
     style="clip-rule:evenodd;fill:#ffffff;fill-opacity:1;fill-rule:evenodd;stroke-linejoin:round;stroke-miterlimit:2">
        <path
   d="m 8.32,0 h 106.24 c 4.58,0 8.32,3.74 8.32,8.32 v 74.62 c 0,4.57 -3.74,8.32 -8.32,8.32 H 8.32 C 3.74,91.26 0,87.51 0,82.94 V 8.32 C 0,3.74 3.74,0 8.32,0 Z M 54.46,72.22 32,58.61 V 49.98 L 54.46,36.37 v 10.26 l -13.65,7.69 13.65,7.7 z m 13.96,0 22.46,-13.61 V 49.98 L 68.42,36.37 v 10.26 l 13.65,7.69 -13.65,7.7 z M 117.97,23.29 H 5.29 v 60.46 c 0,0.64 0.25,1.2 0.67,1.63 0.42,0.42 0.99,0.67 1.63,0.67 h 108.04 c 0.64,0 1.2,-0.25 1.63,-0.67 0.43,-0.43 0.67,-0.99 0.67,-1.63 V 23.29 Z M 106.64,9.35 c 2.27,0 4.11,1.84 4.11,4.11 0,2.27 -1.84,4.11 -4.11,4.11 -2.27,0 -4.11,-1.84 -4.11,-4.11 0.01,-2.27 1.85,-4.11 4.11,-4.11 z m -27.84,0 c 2.27,0 4.11,1.84 4.11,4.11 0,2.27 -1.84,4.11 -4.11,4.11 -2.27,0 -4.11,-1.84 -4.11,-4.11 0,-2.27 1.84,-4.11 4.11,-4.11 z m 13.92,0 c 2.27,0 4.11,1.84 4.11,4.11 0,2.27 -1.84,4.11 -4.11,4.11 -2.27,0 -4.11,-1.84 -4.11,-4.11 0,-2.27 1.84,-4.11 4.11,-4.11 z"
   style="fill:#ffffff;fill-opacity:1"
   id="path24" />
    </g></g></svg>
